<?xml version="1.0" encoding="iso-8859-1"?>
<!-- Generator: Adobe Illustrator 19.0.0, SVG Export Plug-In . SVG Version: 6.00 Build 0)  -->
<svg version="1.1" id="Capa_1" xmlns="http://www.w3.org/2000/svg" xmlns:xlink="http://www.w3.org/1999/xlink" x="0px" y="0px"
	 viewBox="0 0 512.001 512.001" style="enable-background:new 0 0 512.001 512.001;" xml:space="preserve">
<g>
	<circle style="fill:#5EAC24;" cx="361.773" cy="362.384" r="19.214"/>
	<circle style="fill:#5EAC24;" cx="304.286" cy="397.309" r="15.721"/>
	<circle style="fill:#5EAC24;" cx="347.719" cy="438.982" r="15.721"/>
</g>
<path style="fill:#AA6100;" d="M311.564,44.918c-16.581-13.357-51.466-27.192-78.744-27.192c-14.23,0-26.045,1.889-32.024,3.064
	c-9.612-8.727-20.306-15.53-31.917-20.231c-3.906-1.579-8.356,0.304-9.938,4.211c-1.581,3.907,0.304,8.357,4.211,9.938
	c11.694,4.733,21.519,11.617,29.773,19.632c0.156,0.164,0.316,0.323,0.485,0.471c33.638,33.092,40.756,85.01,40.879,85.958
	c0.484,3.86,3.771,6.684,7.563,6.684c0.318,0,0.637-0.02,0.959-0.06c4.182-0.524,7.148-4.339,6.624-8.523
	c-0.115-0.921-2.953-22.849-14.094-48.323c-6.034-13.797-13.368-25.96-21.837-36.326c5.355-0.674,12.005-1.234,19.317-1.234
	c16.565,0,51.685,9.732,69.168,23.815c1.411,1.137,3.103,1.689,4.783,1.689c2.23,0,4.441-0.973,5.949-2.844
	C315.364,52.367,314.846,47.563,311.564,44.918z"/>
<path style="fill:#5EAC24;" d="M432.429,381.437c0,71.815-62.524,130.564-138.959,130.564h-81.523
	c-38.213,0-72.955-14.685-98.142-38.355c-25.187-23.66-40.818-56.306-40.818-92.209c0-34.101,17.076-64.641,43.586-84.434
	c15.254-11.387,27.242-25.818,35.404-41.957c8.172-16.16,12.527-34.03,12.527-52.348c0-45.58,39.698-82.877,88.209-82.877
	c6.635,0,13.107,0.702,19.335,2.025c16.527,3.501,31.343,11.408,42.955,22.317c15.987,15.02,25.909,35.74,25.909,58.535
	c0,36.625,17.422,71.52,47.931,94.305c13.26,9.902,24.159,22.48,31.74,36.849C428.165,348.221,432.429,364.382,432.429,381.437z"/>
<g>
	<path style="fill:#6DC82A;" d="M432.429,381.437c0,71.815-62.524,130.564-138.959,130.564h-42.853
		c-38.213,0-72.955-14.685-98.142-38.355c-25.187-23.66-40.818-56.306-40.818-92.209c0-34.101,17.076-64.641,43.586-84.434
		c15.254-11.387,27.242-25.818,35.404-41.957c8.172-16.16,12.527-34.03,12.527-52.348c0-39.342,29.573-72.517,68.874-80.852
		c16.527,3.501,31.343,11.408,42.955,22.317c15.987,15.02,25.909,35.74,25.909,58.535c0,36.625,17.422,71.52,47.931,94.305
		c13.26,9.902,24.159,22.48,31.74,36.849C428.165,348.221,432.429,364.382,432.429,381.437z"/>
	<path style="fill:#6DC82A;" d="M438.84,144.459c-0.407,2.564-1.526,4.936-3.195,6.849c-1.852,2.168-4.396,3.755-7.327,4.406
		c-1.038,0.234-2.127,0.346-3.256,0.326c-31.221-0.58-98.569-12.008-125.618-95.933c-0.539-1.679-0.743-3.368-0.631-4.997
		c0.081-1.404,0.387-2.768,0.885-4.05c1.537-3.938,4.864-7.093,9.128-8.284c1.028-0.295,2.117-0.468,3.246-0.509
		c33.735-1.252,107.229,6.798,126.625,97.104C439.074,141.111,439.105,142.83,438.84,144.459z"/>
</g>
<path style="fill:#5EAC24;" d="M435.645,151.307c-1.852,2.168-4.396,3.755-7.327,4.406c-1.038,0.234-2.127,0.346-3.256,0.326
	c-31.221-0.58-98.569-12.008-125.618-95.933c-0.539-1.679-0.743-3.368-0.631-4.997c0.081-1.404,0.387-2.768,0.885-4.05
	C321.669,58.915,372.948,83.074,435.645,151.307z"/>
<path style="fill:#47821C;" d="M438.84,144.459c-0.865,5.485-5.007,10.024-10.522,11.255
	C374.708,89.587,311.848,60.615,298.812,55.109c0.346-5.719,4.366-10.756,10.014-12.334
	C328.833,51.67,387.124,81.365,438.84,144.459z"/>
<g>
</g>
<g>
</g>
<g>
</g>
<g>
</g>
<g>
</g>
<g>
</g>
<g>
</g>
<g>
</g>
<g>
</g>
<g>
</g>
<g>
</g>
<g>
</g>
<g>
</g>
<g>
</g>
<g>
</g>
</svg>
